name C:\Users\sachi\predsim_tutorial_model\Results\Case_6\load_motion_data\GRF_extend.mot
datacolumns 19
datarows 20
range 2.62078152 3.00078152
endheader 
time	r_ground_force_vx	r_ground_force_vy	r_ground_force_vz	r_ground_force_px	r_ground_force_py	r_ground_force_pz	l_ground_force_vx	l_ground_force_vy	l_ground_force_vz	l_ground_force_px	l_ground_force_py	l_ground_force_pz	r_ground_torque_x	r_ground_torque_y	r_ground_torque_z	l_ground_torque_x	l_ground_torque_y	l_ground_torque_z	
          2.62078152	         65.53788912	        366.43427325	         -3.16752561	          0.41943027	          0.00000000	          0.06754784	        -12.85731365	        295.60979793	          6.16924540	          0.93902393	          0.00000000	         -0.04320015	          0.00000000	          3.06323785	          0.00000000	          0.00000000	          0.00017257	          0.00000000	
          2.64078152	         43.51232386	        270.17289935	          7.68110501	          0.42598429	          0.00000000	          0.06681417	        -76.11544213	        566.11536318	         10.89142182	          0.94075945	          0.00000000	         -0.04311479	          0.00000000	          1.97626017	          0.00000000	          0.00000000	          0.11135328	          0.00000000	
          2.66078152	         27.17668156	        166.95112124	         20.22149054	          0.43035401	          0.00000000	          0.06075524	        -98.94490366	        705.10991519	         12.02590922	          0.94883741	          0.00000000	         -0.04574661	          0.00000000	          0.99925056	          0.00000000	          0.00000000	          1.05903815	          0.00000000	
          2.68078152	         -9.06103062	         51.53774963	         11.64723129	          0.43923113	          0.00000000	          0.04051554	       -100.40769226	        746.76324659	         15.40073207	          0.95860434	          0.00000000	         -0.04888042	          0.00000000	          0.13600377	          0.00000000	          0.00000000	          1.49111909	          0.00000000	
          2.70078152	          0.00000000	          0.00000000	          0.00000000	          0.00000000	          0.00000000	          0.00000000	        -82.00065416	        724.73973362	         13.37948517	          0.96772896	          0.00000000	         -0.04980798	          0.00000000	          0.00000000	          0.00000000	          0.00000000	          2.31468791	          0.00000000	
          2.72078152	          0.00000000	          0.00000000	          0.00000000	          0.00000000	          0.00000000	          0.00000000	        -66.28241366	        680.16180364	         12.72867820	          0.97886098	          0.00000000	         -0.04860027	          0.00000000	          0.00000000	          0.00000000	          0.00000000	          3.68153402	          0.00000000	
          2.74078152	          0.00000000	          0.00000000	          0.00000000	          0.00000000	          0.00000000	          0.00000000	        -50.09947797	        626.31754073	         13.05560124	          0.98874062	          0.00000000	         -0.04799159	          0.00000000	          0.00000000	          0.00000000	          0.00000000	          4.71146504	          0.00000000	
          2.76078152	          0.00000000	          0.00000000	          0.00000000	          0.00000000	          0.00000000	          0.00000000	        -35.23293694	        580.43049984	         14.43446662	          0.99780922	          0.00000000	         -0.04786465	          0.00000000	          0.00000000	          0.00000000	          0.00000000	          5.16687370	          0.00000000	
          2.78078152	          0.00000000	          0.00000000	          0.00000000	          0.00000000	          0.00000000	          0.00000000	        -24.95602614	        552.04438978	         16.87305009	          1.00805773	          0.00000000	         -0.04787102	          0.00000000	          0.00000000	          0.00000000	          0.00000000	          5.27249011	          0.00000000	
          2.80078152	          0.00000000	          0.00000000	          0.00000000	          0.00000000	          0.00000000	          0.00000000	        -18.81723627	        539.73859769	         18.68655069	          1.01974006	          0.00000000	         -0.04776024	          0.00000000	          0.00000000	          0.00000000	          0.00000000	          4.81511322	          0.00000000	
          2.82078152	          0.00000000	          0.00000000	          0.00000000	          0.00000000	          0.00000000	          0.00000000	        -15.65960338	        536.29523753	         19.08534476	          1.03169187	          0.00000000	         -0.04779835	          0.00000000	          0.00000000	          0.00000000	          0.00000000	          3.88174524	          0.00000000	
          2.84078152	          0.00000000	          0.00000000	          0.00000000	          0.00000000	          0.00000000	          0.00000000	        -11.65856294	        531.99033212	         18.79788344	          1.04303727	          0.00000000	         -0.04848674	          0.00000000	          0.00000000	          0.00000000	          0.00000000	          2.49202928	          0.00000000	
          2.86078152	          0.00000000	          0.00000000	          0.00000000	          0.00000000	          0.00000000	          0.00000000	         -6.82544643	        524.10717173	         17.86341370	          1.05390082	          0.00000000	         -0.04958375	          0.00000000	          0.00000000	          0.00000000	          0.00000000	          1.04850440	          0.00000000	
          2.88078152	          0.00000000	          0.00000000	          0.00000000	          0.00000000	          0.00000000	          0.00000000	         -1.46507730	        516.79368800	         16.65350242	          1.06454985	          0.00000000	         -0.05085924	          0.00000000	          0.00000000	          0.00000000	          0.00000000	          0.04345767	          0.00000000	
          2.90078152	          0.00000000	          0.00000000	          0.00000000	          0.00000000	          0.00000000	          0.00000000	          4.19964392	        512.24588362	         15.56755919	          1.07473618	          0.00000000	         -0.05228127	          0.00000000	          0.00000000	          0.00000000	          0.00000000	         -0.63821889	          0.00000000	
          2.92078152	          0.00000000	          0.00000000	          0.00000000	          0.00000000	          0.00000000	          0.00000000	         12.56145486	        511.49452300	         16.63004901	          1.08428593	          0.00000000	         -0.05380161	          0.00000000	          0.00000000	          0.00000000	          0.00000000	         -1.11452500	          0.00000000	
          2.94078152	          0.00000000	          0.00000000	          0.00000000	          0.00000000	          0.00000000	          0.00000000	         20.38050257	        516.53814833	         18.54867279	          1.09313518	          0.00000000	         -0.05535689	          0.00000000	          0.00000000	          0.00000000	          0.00000000	         -1.61829408	          0.00000000	
          2.96078152	          0.00000000	          0.00000000	          0.00000000	          0.00000000	          0.00000000	          0.00000000	         27.80274483	        528.93014878	         21.32493158	          1.10146084	          0.00000000	         -0.05672621	          0.00000000	          0.00000000	          0.00000000	          0.00000000	         -2.31770297	          0.00000000	
          2.98078152	          0.00000000	          0.00000000	          0.00000000	          0.00000000	          0.00000000	          0.00000000	         36.80107511	        549.85257007	         23.10745873	          1.10886940	          0.00000000	         -0.05776895	          0.00000000	          0.00000000	          0.00000000	          0.00000000	         -3.09006067	          0.00000000	
          3.00078152	          0.00000000	          0.00000000	          0.00000000	          0.00000000	          0.00000000	          0.00000000	         48.20600186	        583.54275546	         22.57330804	          1.11474029	          0.00000000	         -0.05841813	          0.00000000	          0.00000000	          0.00000000	          0.00000000	         -3.79284994	          0.00000000	
